<?xml version="1.0" encoding="UTF-8"?>
<svg width="12px" height="16px" viewBox="0 0 12 16" version="1.1" xmlns="http://www.w3.org/2000/svg" xmlns:xlink="http://www.w3.org/1999/xlink">
    <!-- Generator: sketchtool 50.2 (55047) - http://www.bohemiancoding.com/sketch -->
    <title>C88770FA-E578-4E3A-B157-702F7C77DFDA-27285-0001151BF09070EE@1x</title>
    <desc>Created with sketchtool.</desc>
    <defs></defs>
    <g id="♦️-J-FULL-LUZENSE-" stroke="none" stroke-width="1" fill="none" fill-rule="evenodd">
        <g id="L-Product-Listing_Table-Closed" transform="translate(-1259.000000, -460.000000)">
            <g id="Stacked-Group" transform="translate(370.000000, 192.000000)">
                <g id="1---Table---Open">
                    <g id="open-box">
                        <g id="mol/Product-row-Copy">
                            <g id="DL-ICONS" transform="translate(888.000000, 79.000000)">
                                <g id="org/manual-light-calc-small---download-small-copy-8" transform="translate(0.730046, 181.000000)">
                                    <g id="at/ico/document-16x16-copy-4" transform="translate(-2.000000, 8.000000)">
                                        <g id="Group-5" transform="translate(2.000000, 1.000000)">
                                            <g id="Group-4" transform="translate(0.690097, 0.000000)" stroke="#808080" stroke-width="0.5">
                                                <polygon id="Rectangle" points="0 0 7.36838747 0 11 3.52470017 11 14 0 14"></polygon>
                                                <polyline id="Path-25" transform="translate(9.099426, 1.736575) rotate(-270.000000) translate(-9.099426, -1.736575) " points="7.39878213 3.79417214 10.8000703 3.79417214 10.8000703 -0.321022101"></polyline>
                                            </g>
                                            <path d="M2.39453125,11 L2.39453125,8.15625 L4.03515625,8.15625 L4.03515625,8.47070312 L2.76757812,8.47070312 L2.76757812,9.36523438 L3.94726562,9.36523438 L3.94726562,9.68164062 L2.76757812,9.68164062 L2.76757812,11 L2.39453125,11 Z M4.57617188,11 L4.57617188,8.15625 L5.27539062,8.15625 C5.82487254,8.15625 6.24479021,8.27278529 6.53515625,8.50585938 C6.82552229,8.73893346 6.97070312,9.09765383 6.97070312,9.58203125 C6.97070312,10.0351585 6.83593885,10.3847644 6.56640625,10.6308594 C6.29687365,10.8769544 5.9088567,11 5.40234375,11 L4.57617188,11 Z M4.94921875,10.6855469 L5.421875,10.6855469 C5.80208523,10.6855469 6.08951726,10.5895192 6.28417969,10.3974609 C6.47884212,10.2054027 6.57617188,9.93359551 6.57617188,9.58203125 C6.57617188,9.20312311 6.47233177,8.92317799 6.26464844,8.7421875 C6.05696511,8.56119701 5.73893443,8.47070312 5.31054688,8.47070312 L4.94921875,8.47070312 L4.94921875,10.6855469 Z M8.3125,11 L7.24609375,8.15625 L7.66210938,8.15625 C7.68554699,8.22135449 7.80501194,8.5585907 8.02050781,9.16796875 C8.23600368,9.7773468 8.40039006,10.2395818 8.51367188,10.5546875 C8.6256516,10.2369776 8.78938694,9.77669572 9.00488281,9.17382812 C9.22037868,8.57096053 9.34179674,8.23177121 9.36914062,8.15625 L9.76171875,8.15625 L8.703125,11 L8.3125,11 Z" id="FDV" fill="#4D4D4D"></path>
                                        </g>
                                    </g>
                                </g>
                            </g>
                        </g>
                    </g>
                </g>
            </g>
        </g>
    </g>
</svg>