<?xml version="1.0" encoding="UTF-8"?>
<svg width="12px" height="16px" viewBox="0 0 12 16" version="1.1" xmlns="http://www.w3.org/2000/svg" xmlns:xlink="http://www.w3.org/1999/xlink">
    <!-- Generator: sketchtool 50.2 (55047) - http://www.bohemiancoding.com/sketch -->
    <title>A48977A9-06B6-4F33-83CE-31C4C4152BF7-27285-0001151BF091300A@1x</title>
    <desc>Created with sketchtool.</desc>
    <defs></defs>
    <g id="♦️-J-FULL-LUZENSE-" stroke="none" stroke-width="1" fill="none" fill-rule="evenodd">
        <g id="L-Product-Listing_Table-Closed" transform="translate(-1277.000000, -460.000000)" stroke="#808080" stroke-width="0.5">
            <g id="Stacked-Group" transform="translate(370.000000, 192.000000)">
                <g id="1---Table---Open">
                    <g id="open-box">
                        <g id="mol/Product-row-Copy">
                            <g id="DL-ICONS" transform="translate(888.000000, 79.000000)">
                                <g id="org/manual-light-calc-small---download-small-copy-8" transform="translate(0.730046, 181.000000)">
                                    <g id="at/ico/document-16x16-copy-5" transform="translate(16.150794, 8.000000)">
                                        <g id="Group-4" transform="translate(2.000000, 1.000000)">
                                            <polygon id="Rectangle" points="0.690097186 0 8.05848466 0 11.6900972 3.52470017 11.6900972 14 0.690097186 14"></polygon>
                                            <polyline id="Path-25" transform="translate(9.789523, 1.736575) rotate(-270.000000) translate(-9.789523, -1.736575) " points="8.08887931 3.79417214 11.4901674 3.79417214 11.4901674 -0.321022101"></polyline>
                                            <path d="M5.3091163,11.5516271 L7.18082912,11.5516271 C7.19038409,10.5687867 7.27758704,10.0221661 7.44243796,9.91176519 C8.0461237,9.50747585 8.44355794,8.81917801 8.44355794,8.03805442 C8.44355794,6.79350241 7.4346492,5.78459367 6.19009719,5.78459367 C4.94554518,5.78459367 3.93663643,6.79350241 3.93663643,8.03805442 C3.93663643,8.86320737 4.38013753,9.58477509 5.04177141,9.97738927 C5.26596308,10.1104248 5.35507805,10.6351708 5.3091163,11.5516271 Z" id="Oval-4" fill="#FAFFCE"></path>
                                        </g>
                                    </g>
                                </g>
                            </g>
                        </g>
                    </g>
                </g>
            </g>
        </g>
    </g>
</svg>