<?xml version="1.0" encoding="UTF-8"?>
<svg width="17px" height="17px" viewBox="0 0 17 17" version="1.1" xmlns="http://www.w3.org/2000/svg" xmlns:xlink="http://www.w3.org/1999/xlink">
    <!-- Generator: Sketch 47.1 (45422) - http://www.bohemiancoding.com/sketch -->
    <title>UXPT/Icon/User@1x</title>
    <desc>Created with Sketch.</desc>
    <defs>
        <path d="M12,12 C9.795,12 8,10.205 8,8 C8,5.795 9.794,4 12,4 C14.206,4 16,5.795 16,8 C16,10.205 14.206,12 12,12 Z M12,13 C16.711,13 20,15.467 20,19 L20,20 L4,20 L4,19 C4,15.467 7.29,13 12,13 Z" id="path-1"></path>
    </defs>
    <g id="Pages---Unilamp-Update" stroke="none" stroke-width="1" fill="none" fill-rule="evenodd">
        <g id="Assets---Lu---Icons" transform="translate(-121.000000, -119.000000)">
            <g id="UXPT/Icon/User" transform="translate(117.884645, 115.376631)">
                <rect id="Bounding-Box" x="0" y="0" width="24" height="24"></rect>
                <mask id="mask-2" fill="white">
                    <use xlink:href="#path-1"></use>
                </mask>
                <g id="Mask"></g>
                <g id="↳-🎨Color" mask="url(#mask-2)" fill="#0C0033">
                    <rect id="Rectangle" x="0" y="0" width="24" height="24"></rect>
                </g>
            </g>
        </g>
    </g>
</svg>